<svg width="29" height="29" viewBox="0 0 29 29" fill="none" xmlns="http://www.w3.org/2000/svg">
<path d="M23.143 10.5716V8.85728H20.6597C20.4633 8.44323 20.1285 8.1084 19.7144 7.91197V5.42871H18.0001V7.71443H15.143V5.42871H13.4287V7.71443H10.5716V5.42871H8.85728V7.90863C8.441 8.10617 8.10617 8.441 7.90863 8.85728H5.42871V10.5716H7.71443V13.4287H5.42871V15.143H7.71443V18.0001H5.42871V19.7144H7.90863C8.10617 20.1307 8.441 20.4655 8.85728 20.6631V23.143H10.5716V20.8573H13.4287V23.143H15.143V20.8573H18.0001V23.143H19.7144V20.6597C20.1285 20.4633 20.4633 20.1285 20.6597 19.7144H23.143V18.0001H20.8573V15.143H23.143V13.4287H20.8573V10.5716H23.143ZM19.143 13.4287V18.8573C19.143 18.9332 19.1129 19.0057 19.0593 19.0593C19.0057 19.1129 18.9332 19.143 18.8573 19.143H9.71443C9.55706 19.143 9.42871 19.0146 9.42871 18.8573V9.71443C9.42871 9.55706 9.55706 9.42871 9.71443 9.42871H18.8573C18.9332 9.42871 19.0057 9.45885 19.0593 9.51242C19.1129 9.56599 19.143 9.63853 19.143 9.71443V13.4287Z" fill="#00C853" fill-opacity="0.733333"/>
</svg>
